<?xml version="1.0" standalone="no"?>
<!DOCTYPE svg PUBLIC "-//W3C//DTD SVG 20010904//EN"
 "http://www.w3.org/TR/2001/REC-SVG-20010904/DTD/svg10.dtd">
<svg version="1.0" xmlns="http://www.w3.org/2000/svg"
 width="512.000000pt" height="512.000000pt" viewBox="0 0 512.000000 512.000000"
 preserveAspectRatio="xMidYMid meet">
<metadata>
Created by potrace 1.16, written by Peter Selinger 2001-2019
</metadata>
<g transform="translate(0.000000,512.000000) scale(0.100000,-0.100000)"
fill="#000000" stroke="none">
<path d="M4390 4744 c-93 -24 -193 -79 -257 -141 -35 -35 -460 -604 -1053
-1408 -547 -742 -1001 -1355 -1010 -1362 -47 -38 -42 -43 -563 535 -271 301
-514 566 -540 589 -50 46 -155 102 -232 124 -83 23 -246 18 -333 -10 -190 -62
-337 -219 -387 -411 -13 -48 -16 -93 -13 -175 5 -122 24 -190 80 -282 28 -46
1270 -1436 1431 -1601 159 -163 341 -242 557 -242 208 0 398 79 542 227 72 74
2413 3249 2449 3323 16 30 35 82 44 115 19 76 19 224 0 299 -53 202 -227 374
-426 421 -80 18 -217 18 -289 -1z"/>
</g>
</svg>
