<?xml version="1.0" standalone="no"?>
<!DOCTYPE svg PUBLIC "-//W3C//DTD SVG 20010904//EN"
 "http://www.w3.org/TR/2001/REC-SVG-20010904/DTD/svg10.dtd">
<svg version="1.0" xmlns="http://www.w3.org/2000/svg"
 width="981.000000pt" height="981.000000pt" viewBox="0 0 981.000000 981.000000"
 preserveAspectRatio="xMidYMid meet">
<metadata>
Created by potrace 1.16, written by Peter Selinger 2001-2019
</metadata>
<g transform="translate(0.000000,981.000000) scale(0.100000,-0.100000)"
fill="#000000" stroke="none">
<path d="M4615 9804 c-718 -56 -1288 -208 -1880 -500 -1293 -637 -2245 -1821
-2590 -3218 -419 -1701 89 -3479 1342 -4696 799 -777 1802 -1244 2933 -1366
202 -22 728 -25 920 -6 648 66 1185 217 1735 488 987 487 1791 1302 2262 2294
245 516 392 1050 455 1660 17 166 17 735 0 900 -96 924 -403 1728 -936 2455
-309 421 -727 826 -1166 1129 -673 466 -1443 750 -2280 841 -138 15 -678 28
-795 19z m-1396 -2010 c163 -29 444 -148 672 -285 118 -71 120 -71 176 -66 32
3 111 17 177 31 234 52 415 70 711 70 322 0 532 -23 815 -90 59 -14 118 -23
134 -19 16 3 71 32 122 65 185 120 420 230 599 280 90 25 259 40 289 25 25
-13 55 -90 98 -255 25 -96 31 -141 35 -270 6 -166 -7 -268 -47 -385 -11 -32
-20 -66 -20 -75 0 -9 33 -57 73 -107 205 -257 291 -524 304 -938 11 -359 -56
-662 -219 -988 -76 -155 -124 -224 -222 -325 -131 -135 -267 -226 -458 -306
-142 -60 -257 -94 -533 -161 -127 -30 -236 -58 -244 -61 -11 -3 -7 -13 16 -37
52 -54 110 -154 137 -235 59 -176 58 -168 65 -952 5 -662 8 -728 23 -757 22
-40 60 -67 123 -87 47 -15 7 -16 -620 -11 -368 3 -878 5 -1133 5 -295 0 -461
4 -457 10 3 5 37 25 74 45 38 20 79 48 92 61 l24 26 3 446 c1 250 -2 453 -7
461 -8 12 -19 12 -77 0 -103 -21 -461 -18 -583 4 -283 52 -462 176 -565 391
-25 53 -66 138 -91 190 -90 187 -202 326 -334 411 -72 46 -155 130 -164 165
-22 83 182 103 347 33 162 -68 292 -185 412 -368 140 -217 286 -331 475 -371
144 -31 420 1 549 64 42 21 53 41 78 153 25 110 79 219 148 303 30 36 53 66
52 66 -31 1 -294 45 -382 65 -451 101 -817 325 -1019 624 -143 211 -252 557
-288 905 -16 161 -6 441 20 567 44 217 136 422 267 595 41 54 74 106 74 116 0
10 -11 55 -24 100 -34 118 -50 262 -42 381 12 188 85 471 129 502 24 17 68 15
216 -11z"/>
</g>
</svg>
