<?xml version="1.0" standalone="no"?>
<!DOCTYPE svg PUBLIC "-//W3C//DTD SVG 20010904//EN"
 "http://www.w3.org/TR/2001/REC-SVG-20010904/DTD/svg10.dtd">
<svg version="1.0" xmlns="http://www.w3.org/2000/svg"
 width="512.000000pt" height="512.000000pt" viewBox="0 0 512.000000 512.000000"
 preserveAspectRatio="xMidYMid meet">
<metadata>
Created by potrace 1.16, written by Peter Selinger 2001-2019
</metadata>
<g transform="translate(0.000000,512.000000) scale(0.100000,-0.100000)"
fill="#000000" stroke="none">
<path d="M883 4466 c-59 -19 -104 -49 -153 -102 -69 -75 -85 -121 -85 -244 0
-90 3 -112 24 -155 19 -40 164 -191 700 -727 l676 -678 -676 -677 c-536 -537
-681 -688 -700 -728 -21 -43 -24 -65 -24 -155 0 -87 4 -113 22 -152 30 -66
105 -143 172 -175 50 -25 67 -28 161 -28 90 0 112 3 155 24 40 19 191 164 728
700 l677 676 678 -676 c536 -536 687 -681 727 -700 43 -21 65 -24 155 -24 87
0 113 4 152 22 66 30 139 102 174 170 27 53 29 67 29 163 0 90 -4 112 -24 155
-19 40 -165 191 -700 728 l-676 677 676 678 c536 536 681 687 700 727 21 43
24 65 24 155 0 87 -4 113 -22 152 -30 66 -105 143 -172 175 -50 25 -67 28
-161 28 -90 0 -112 -3 -155 -24 -40 -19 -191 -164 -727 -700 l-678 -676 -677
676 c-543 541 -688 681 -728 700 -61 29 -205 37 -272 15z"/>
</g>
</svg>
